<?xml version="1.0" encoding="UTF-8"?>
<svg version="1.1" xmlns="http://www.w3.org/2000/svg" width="64" height="64">
<path d="M0 0 C8.34468007 4.97590182 13.53387008 11.86345977 16.109375 21.2578125 C17.10373113 32.31135278 16.43986798 41.89848789 9.484375 51.0078125 C3.88947121 57.03089771 -3.2616808 60.94615069 -11.4296875 61.49609375 C-22.26201014 61.79047196 -31.10101849 60.67393084 -39.359375 52.9609375 C-46.77228298 44.71596842 -48.47346406 35.97942314 -48.203125 25.17578125 C-47.79647331 20.07738572 -46.63984513 16.52678786 -43.890625 12.2578125 C-43.45492187 11.55140625 -43.01921875 10.845 -42.5703125 10.1171875 C-33.40117673 -3.4110456 -14.48728344 -6.95195145 0 0 Z " fill="#DCE6EF" transform="translate(47.890625,2.7421875)"/>
<path d="M0 0 C8.34468007 4.97590182 13.53387008 11.86345977 16.109375 21.2578125 C17.10373113 32.31135278 16.43986798 41.89848789 9.484375 51.0078125 C3.88947121 57.03089771 -3.2616808 60.94615069 -11.4296875 61.49609375 C-22.26201014 61.79047196 -31.10101849 60.67393084 -39.359375 52.9609375 C-46.77228298 44.71596842 -48.47346406 35.97942314 -48.203125 25.17578125 C-47.79647331 20.07738572 -46.63984513 16.52678786 -43.890625 12.2578125 C-43.45492187 11.55140625 -43.01921875 10.845 -42.5703125 10.1171875 C-33.40117673 -3.4110456 -14.48728344 -6.95195145 0 0 Z M-36.515625 15.09765625 C-40.63189639 21.56441216 -40.85813771 28.84021503 -39.890625 36.2578125 C-37.15183866 43.87018061 -32.07338078 48.71867283 -24.890625 52.2578125 C-17.44417745 54.6146493 -9.8743816 53.51865916 -2.890625 50.2578125 C2.50658371 46.72886834 6.01912912 42.34096398 8.109375 36.2578125 C9.17624089 28.03489334 8.78695398 20.1014531 3.66796875 13.359375 C-1.65053317 7.51025688 -7.88784168 4.16824474 -15.828125 3.6953125 C-24.60696409 4.11789637 -30.95392349 8.58672203 -36.515625 15.09765625 Z " fill="#E107AF" transform="translate(47.890625,2.7421875)"/>
<path d="M0 0 C0.99 0.33 1.98 0.66 3 1 C3 1.99 3 2.98 3 4 C3.59167969 4.15855469 4.18335937 4.31710938 4.79296875 4.48046875 C11.20268377 6.37305997 14.64576647 8.74945588 18.62109375 14.23828125 C20.32269597 17.6463061 20.30226284 20.0253264 20.1875 23.8125 C20.14689453 25.55466797 20.14689453 25.55466797 20.10546875 27.33203125 C20.07066406 28.21246094 20.03585938 29.09289062 20 30 C19.01 30.495 19.01 30.495 18 31 C15.56442428 30.09176973 13.23804483 29.13171929 10.875 28.0625 C10.21628906 27.77181641 9.55757812 27.48113281 8.87890625 27.18164062 C7.24950495 26.46139802 5.62433868 25.73158857 4 25 C4 23.68 4 22.36 4 21 C2.35 21 0.7 21 -1 21 C-0.896875 22.2375 -0.79375 23.475 -0.6875 24.75 C-0.63688477 31.09715037 -3.32856845 36.36137126 -6 42 C-12.08515097 39.90274084 -15.26054519 36.08357898 -18.375 30.5625 C-20.11443326 23.43082362 -19.01237586 18.63309295 -15.55859375 12.2734375 C-12.6517348 8.03335752 -9.24135304 5.44827061 -4.1875 4.4375 C-3.465625 4.293125 -2.74375 4.14875 -2 4 C-0.63979849 2.03241727 -0.63979849 2.03241727 0 0 Z " fill="#FEBE09" transform="translate(31,8)"/>
<path d="M0 0 C5.77877273 3.45446931 9.54055675 6.89983138 12.1171875 13.265625 C10.8432286 15.30395924 9.50656827 17.30414626 8.1171875 19.265625 C7.4571875 19.265625 6.7971875 19.265625 6.1171875 19.265625 C5.17632776 17.82073325 4.23716481 16.37469467 3.30859375 14.921875 C-0.25064344 9.97395183 -5.17280135 7.0737952 -10.8828125 5.265625 C-18.54095171 4.09042994 -24.54534308 5.88066337 -30.8828125 10.265625 C-33.73620077 12.96274251 -36.12324623 15.74649247 -37.8828125 19.265625 C-40.53554111 18.29295784 -41.77698749 17.40401155 -43.5078125 15.140625 C-43.95736102 11.69408635 -43.44196309 11.05122232 -41.5078125 8.265625 C-31.67127764 -3.63703134 -13.79806423 -6.59705428 0 0 Z " fill="#FE42C1" transform="translate(47.8828125,2.734375)"/>
<path d="M0 0 C0.66 0 1.32 0 2 0 C5.44619572 4.01424996 6.38163858 6.7877613 6.04492188 12.06542969 C5.96081055 13.14679199 5.96081055 13.14679199 5.875 14.25 C5.62957205 20.88511608 6.15418918 25.48142948 10.1484375 31.046875 C13.06398518 34.12234723 16.2081463 36.15780387 20 38 C20.73992188 38.37125 21.47984375 38.7425 22.2421875 39.125 C22.82226562 39.41375 23.40234375 39.7025 24 40 C23.34 40 22.68 40 22 40 C21.67 42.31 21.34 44.62 21 47 C14.16502479 46.64948845 8.8147412 42.95486901 4.1953125 38.10546875 C-3.22195122 28.75086003 -3.920566 19.51887707 -3 8 C-2.27758277 5.01068731 -1.38075832 2.76151664 0 0 Z " fill="#E207AF" transform="translate(3,16)"/>
<path d="M0 0 C1.67542976 0.28604898 3.34385343 0.61781233 5 1 C5 2.32 5 3.64 5 5 C5.58007812 5.18175781 6.16015625 5.36351562 6.7578125 5.55078125 C11.39147293 7.0418106 15.69762355 8.68333576 20 11 C18.63835184 16.14400416 15.3115928 19.1256048 11 22 C7.75779335 23.1598689 4.67093145 23.10322537 1.25 23.0625 C0.26515625 23.05347656 -0.7196875 23.04445313 -1.734375 23.03515625 C-2.48203125 23.02355469 -3.2296875 23.01195313 -4 23 C-5.21940917 19.34177248 -4.65436038 18.75167354 -3.0625 15.375 C-0.87805536 10.28045616 -0.7384068 6.49345728 -1 1 C-0.67 0.67 -0.34 0.34 0 0 Z " fill="#1135E7" transform="translate(30,28)"/>
<path d="M0 0 C-0.33 1.65 -0.66 3.3 -1 5 C-2.051875 5.226875 -3.10375 5.45375 -4.1875 5.6875 C-9.69104878 7.29640035 -12.57319237 10.93729865 -15.3125 15.8125 C-17.57522746 20.73508668 -18.01328612 24.93167856 -16.3046875 30.10546875 C-13.81433739 35.68259736 -10.41177135 39.61518937 -4.61328125 41.96875 C-2.42171718 42.71188633 -0.23187291 43.38995474 2 44 C2 45.32 2 46.64 2 48 C-5.50211578 47.76183759 -10.41297097 46.12667458 -16 41 C-21.40589978 34.83771918 -22.82090402 29.1610919 -22.3828125 21.046875 C-21.36612918 12.95490568 -18.36134377 8.13800843 -12 3 C-7.81834165 0.35446104 -4.92996768 -0.35214055 0 0 Z " fill="#FDF6F8" transform="translate(30,8)"/>
<path d="M0 0 C5.76044212 0.60636233 10.72014369 2.75658279 16 5 C17.94281628 12.77126511 15.39628641 17.94888635 12 25 C5.91484903 22.90274084 2.73945481 19.08357898 -0.375 13.5625 C-1.49868896 8.95537526 -1.5115618 4.53468539 0 0 Z " fill="#EF0D40" transform="translate(13,25)"/>
<path d="M0 0 C5.26251129 1.31562782 7.49196695 3.93543094 10.640625 8.24609375 C12.31963414 11.64753469 12.30180422 14.04046063 12.1875 17.8125 C12.16042969 18.97394531 12.13335937 20.13539062 12.10546875 21.33203125 C12.07066406 22.21246094 12.03585938 23.09289062 12 24 C11.34 24.33 10.68 24.66 10 25 C7.56442428 24.09176973 5.23804483 23.13171929 2.875 22.0625 C2.21628906 21.77181641 1.55757812 21.48113281 0.87890625 21.18164062 C-0.75049505 20.46139802 -2.37566132 19.73158857 -4 19 C-4 17.68 -4 16.36 -4 15 C-4.66 14.67 -5.32 14.34 -6 14 C-4.02 9.38 -2.04 4.76 0 0 Z " fill="#5EC02C" transform="translate(39,14)"/>
<path d="M0 0 C1.32 0 2.64 0 4 0 C4.84026396 1.76755526 5.67198722 3.53917263 6.5 5.3125 C6.9640625 6.29863281 7.428125 7.28476562 7.90625 8.30078125 C9 11 9 11 9 14 C9.66 14.33 10.32 14.66 11 15 C7.68929162 16.00109515 4.69915231 16.10356134 1.25 16.0625 C0.26515625 16.05347656 -0.7196875 16.04445313 -1.734375 16.03515625 C-2.48203125 16.02355469 -3.2296875 16.01195313 -4 16 C-5.35304209 11.94087374 -4.15216503 10.22850409 -2.5625 6.3125 C-2.08941406 5.13300781 -1.61632812 3.95351563 -1.12890625 2.73828125 C-0.75636719 1.83464844 -0.38382813 0.93101563 0 0 Z " fill="#0C70FA" transform="translate(30,35)"/>
<path d="M0 0 C0.66 0.33 1.32 0.66 2 1 C2 5.29 2 9.58 2 14 C0 15 0 15 -2.78515625 14.14453125 C-3.86667969 13.70496094 -4.94820312 13.26539063 -6.0625 12.8125 C-7.68865234 12.17248047 -7.68865234 12.17248047 -9.34765625 11.51953125 C-12 10 -12 10 -12.87109375 7.82421875 C-12.91363281 7.22222656 -12.95617188 6.62023437 -13 6 C-11.3970947 5.18501438 -9.79262722 4.37310073 -8.1875 3.5625 C-7.29417969 3.11003906 -6.40085937 2.65757813 -5.48046875 2.19140625 C-3 1 -3 1 0 0 Z " fill="#A8DF39" transform="translate(49,24)"/>
<path d="M0 0 C5.54050113 0.56825653 10.03715966 2.62886517 15 5 C14.91015625 6.828125 14.91015625 6.828125 14 9 C11.05859375 10.484375 11.05859375 10.484375 7.4375 11.75 C6.23996094 12.17796875 5.04242188 12.6059375 3.80859375 13.046875 C2.88175781 13.36140625 1.95492188 13.6759375 1 14 C-1.01696222 10.97455666 -1.25811096 10.38932618 -1.1875 7 C-1.18105469 6.319375 -1.17460937 5.63875 -1.16796875 4.9375 C-1 3 -1 3 0 0 Z " fill="#FE3C09" transform="translate(13,25)"/>
<path d="M0 0 C4.62 0 9.24 0 14 0 C15 2 15 2 15 8 C9.72 8 4.44 8 -1 8 C-1 2 -1 2 0 0 Z " fill="#1E0564" transform="translate(25,56)"/>
<path d="M0 0 C0.99 0.33 1.98 0.66 3 1 C3 1.99 3 2.98 3 4 C4.65 4.33 6.3 4.66 8 5 C7.37321829 8.66172475 6.35548154 11.8818995 4.9375 15.3125 C4.57527344 16.19550781 4.21304688 17.07851563 3.83984375 17.98828125 C3.42412109 18.98408203 3.42412109 18.98408203 3 20 C2.34 20 1.68 20 1 20 C0.63704322 16.85511498 0.28611204 13.70900484 -0.0625 10.5625 C-0.16626953 9.66466797 -0.27003906 8.76683594 -0.37695312 7.84179688 C-0.47041016 6.98779297 -0.56386719 6.13378906 -0.66015625 5.25390625 C-0.74918213 4.46314697 -0.83820801 3.6723877 -0.92993164 2.85766602 C-0.9530542 2.24463623 -0.97617676 1.63160645 -1 1 C-0.67 0.67 -0.34 0.34 0 0 Z " fill="#F7BB0C" transform="translate(31,8)"/>
<path d="M0 0 C0.91657981 5.38490641 1.11138159 10.54230189 1 16 C-2 15 -2 15 -3.16796875 12.78515625 C-3.50441406 11.88667969 -3.84085938 10.98820312 -4.1875 10.0625 C-4.53167969 9.16660156 -4.87585938 8.27070313 -5.23046875 7.34765625 C-6 5 -6 5 -6 3 C-6.99 2.67 -7.98 2.34 -9 2 C-2.25 0 -2.25 0 0 0 Z " fill="#FBE215" transform="translate(31,12)"/>
<path d="M0 0 C0.66 0 1.32 0 2 0 C2 4.95 2 9.9 2 15 C0.02 15 -1.96 15 -4 15 C-5.32830615 11.01508155 -4.23204404 9.59951452 -2.5625 5.8125 C-2.08941406 4.72582031 -1.61632812 3.63914063 -1.12890625 2.51953125 C-0.75636719 1.68808594 -0.38382813 0.85664062 0 0 Z " fill="#0AABFA" transform="translate(30,36)"/>
<path d="M0 0 C4.62 0 9.24 0 14 0 C14 1.32 14 2.64 14 4 C9.38 4 4.76 4 0 4 C0 2.68 0 1.36 0 0 Z " fill="#100344" transform="translate(25,56)"/>
<path d="M0 0 C1.67542976 0.28604898 3.34385343 0.61781233 5 1 C5 2.65 5 4.3 5 6 C3.34385343 6.38218767 1.67542976 6.71395102 0 7 C-1 6 -1 6 -1.125 3.5 C-1 1 -1 1 0 0 Z " fill="#483D73" transform="translate(30,28)"/>
<path d="M0 0 C0.33 0.66 0.66 1.32 1 2 C3.31 2 5.62 2 8 2 C8 3.32 8 4.64 8 6 C5.36 6 2.72 6 0 6 C0 4.02 0 2.04 0 0 Z " fill="#260E8A" transform="translate(24,58)"/>
<path d="M0 0 C1.98 0 3.96 0 6 0 C6 1.32 6 2.64 6 4 C3.69 4 1.38 4 -1 4 C-0.67 2.68 -0.34 1.36 0 0 Z " fill="#070127" transform="translate(33,56)"/>
<path d="M0 0 C0.99 0.33 1.98 0.66 3 1 C2.67 3.97 2.34 6.94 2 10 C1.34 10 0.68 10 0 10 C-0.19412181 8.52168779 -0.38012131 7.04230684 -0.5625 5.5625 C-0.66691406 4.73878906 -0.77132813 3.91507813 -0.87890625 3.06640625 C-0.91886719 2.38449219 -0.95882813 1.70257813 -1 1 C-0.67 0.67 -0.34 0.34 0 0 Z " fill="#433380" transform="translate(31,8)"/>
</svg>
